# xmcd CD database file
# Copyright (C) 1993-1996 Ti Kan
#
# Track frame offsets:
#	182
#	13095
#	33692
#	55507
#	76345
#	89080
#	110442
#	125912
#	147067
#	170207
#	196600
#	217565
#	229777
#	249155
#	266690
#	288930
#
# Disc length: 4078 seconds
#
# Revision: 1
# Processed by: cddbd v1.4b41PL1 Copyright (c) Steve Scherf et al.
# Submitted via: CDValet v3.01 - Copyright (c) 1997 Greg Leichner
#
DISCID=db0fec10
DTITLE=Various Artist - Synthesizer Collection - Vol. 3
DYEAR=1900
DGENRE=
TTITLE0=Magic Fly
TTITLE1=Mountain Dust
TTITLE2=Theme From Antarctica
TTITLE3=Sailing
TTITLE4=Tao Of Love
TTITLE5=First Approach
TTITLE6=I'll Be Your Baby Tonight
TTITLE7=Memory Moments
TTITLE8=Dune (Desert Theme)
TTITLE9=L'Opera Sauvage
TTITLE10=It Must Have Been Love
TTITLE11=On Golden Pond
TTITLE12=Glory Of Love
TTITLE13=Fragile
TTITLE14=China
TTITLE15=Chase
EXTD=
EXTT0=
EXTT1=
EXTT2=
EXTT3=
EXTT4=
EXTT5=
EXTT6=
EXTT7=
EXTT8=
EXTT9=
EXTT10=
EXTT11=
EXTT12=
EXTT13=
EXTT14=
EXTT15=
PLAYORDER=
